<svg data-v-0dd9719b="" version="1.0" xmlns="http://www.w3.org/2000/svg" xmlns:xlink="http://www.w3.org/1999/xlink" width="100%" height="100%" viewBox="0 0 340.000000 250.000000" preserveAspectRatio="xMidYMid meet" color-interpolation-filters="sRGB" style="margin: auto;"> <rect data-v-0dd9719b="" x="0" y="0" width="100%" height="100%" fill="#fff" fill-opacity="1" class="background"></rect> <rect data-v-0dd9719b="" x="0" y="0" width="100%" height="100%" fill="url(#watermark)" fill-opacity="1" class="watermarklayer"></rect> <g data-v-0dd9719b="" fill="#333" class="icon-text-wrapper icon-svg-group iconsvg" transform="translate(49.99000549316406,95.01139640808105)"><g class="iconsvg-imagesvg" transform="translate(0,0)"><g><rect fill="#333" fill-opacity="0" stroke-width="2" x="0" y="0" width="60" height="59.977208660708925" class="image-rect"></rect> <svg x="0" y="0" width="60" height="59.977208660708925" filtersec="colorsb6062585181" class="image-svg-svg primary" style="overflow: visible;"><svg xmlns="http://www.w3.org/2000/svg" viewBox="-0.024392234161496162 -0.00439166696742177 206.4888916015625 206.41061401367188"><title>资源 7</title><g fill-rule="evenodd"><path d="M176.24 176.18a102.91 102.91 0 0 1-76.44 30.16c-8.75-.29-10.94-10.72-6.79-17 17.92-27.07 75.72-28.09 101.23-60a56.23 56.23 0 0 0 10.57-21.88c.56-2.21 1.26-4.67 1.63-6.42a102.92 102.92 0 0 1-30.2 75.1z" fill="#03b2de" opacity=".48"></path><path d="M176.18 176.24a102.92 102.92 0 0 0 30.16-76.44c-.29-8.76-10.73-10.94-17-6.79C168.21 107 163 145.3 146.5 173.56c-9.44 16.21-25.92 31.19-45.38 32.82a102.78 102.78 0 0 0 75.06-30.14z" fill="#8e03ff" opacity=".48"></path><path d="M30.22 30.28A102.94 102.94 0 0 1 106.66.12c8.77.29 10.94 10.73 6.79 17-17.91 27.07-75.72 28.09-101.23 60A56.23 56.23 0 0 0 1.65 99c-.56 2.17-1.25 4.63-1.65 6.38a102.93 102.93 0 0 1 30.2-75.1z" fill="#00deb9" opacity=".48"></path><path d="M30.28 30.22A102.94 102.94 0 0 0 .12 106.66c.29 8.77 10.73 10.94 17 6.79 27.07-17.91 28.09-75.72 60-101.23A56.23 56.23 0 0 1 99 1.65c2.21-.56 4.67-1.25 6.42-1.63a102.93 102.93 0 0 0-75.1 30.2z" fill="#1d88e1" opacity=".48"></path><path d="M44 187.8c-32.11-55.4 181.83-82.46 145-142a103.71 103.71 0 0 0-26.5-27.07c25.84 44.36-100 69.18-138.89 106.54C12.3 136.12 10.9 151.63 20 164.34a103.82 103.82 0 0 0 24 23.46z" fill="#8e03ff" opacity=".48"></path><path d="M187.75 44c-51.41-29.78-77.2 148.08-127.43 150-4.47.18-9.6-2-14.56-5a103.71 103.71 0 0 1-27.07-26.5C71.5 193.28 96.63 9 148.17 12.54c4.69.32 10.6 3.57 16.11 7.51a104.32 104.32 0 0 1 23.47 24z" fill="#1d88e1" opacity=".48"></path></g></svg></svg> <!----></g></g> <g transform="translate(67,1.5873527526855469)"><g data-gra="path-name" fill-rule="" class="tp-name iconsvg-namesvg" transform="translate(0,0)"><g transform="scale(1)"><g><path d="M8.37-12.91L35.41-12.91 35.41 3.28 8.37 3.28 8.37-12.91ZM9.99-11.29L9.99 1.71 33.8 1.71 33.8-11.29 9.99-11.29ZM1.98-17.64L1.13-19.08Q7.51-22.36 12.82-26.91L12.82-26.91Q15.52-29.25 17.62-31.61 19.71-33.98 21.24-36.41L21.24-36.41 22.59-36.41Q25.96-31.09 31.05-26.8 36.13-22.5 42.8-19.21L42.8-19.21 41.85-17.77Q35.28-21.15 30.35-25.24 25.43-29.34 21.91-34.65L21.91-34.65Q18.68-29.83 13.41-25.33L13.41-25.33Q8.23-20.84 1.98-17.64L1.98-17.64ZM10.89-21.69L32.85-21.69 32.85-20.16 10.89-20.16 10.89-21.69ZM65.66-33.52L84.64-33.52 84.64-15.62 67.19-15.62 67.19-2.79Q67.23-1.35 67.39-0.49 67.55 0.36 68.02 0.83 68.49 1.3 69.32 1.48 70.16 1.67 71.55 1.71L71.55 1.71Q75.02 1.84 80.55 1.71L80.55 1.71Q81.85 1.67 82.66 1.57 83.47 1.48 83.97 1.15 84.47 0.81 84.69 0.16 84.91-0.49 85.05-1.57L85.05-1.57Q85.09-2.02 85.19-2.79 85.28-3.55 85.34-4.37 85.41-5.17 85.48-5.87 85.55-6.57 85.55-6.93L85.55-6.93 87.07-6.34Q87.07-6.03 87.01-5.29 86.94-4.54 86.85-3.73 86.76-2.92 86.69-2.23 86.63-1.53 86.58-1.26L86.58-1.26Q86.4 0.14 86.06 1.01 85.72 1.89 85.07 2.38 84.42 2.88 83.38 3.08 82.35 3.28 80.82 3.33L80.82 3.33Q80.1 3.33 78.86 3.35 77.63 3.38 76.23 3.38 74.83 3.38 73.48 3.38 72.13 3.38 71.19 3.33L71.19 3.33Q69.39 3.28 68.31 2.99 67.23 2.7 66.64 2.02 66.06 1.35 65.86 0.25 65.66-0.85 65.66-2.48L65.66-2.48 65.66-33.52ZM48.73 4.72L47.16 4.05Q49.09 0.14 49.77-3.87L49.77-3.87Q50.45-7.83 50.45-17.77L50.45-17.77 50.45-33.75 60.75-33.75 60.75-0.04Q60.75 1.98 60.03 2.63 59.31 3.28 57.55 3.42L57.55 3.42Q56.38 3.51 55.46 3.51 54.54 3.51 53.73 3.51L53.73 3.51 53.46 1.75Q55.39 1.98 57.28 1.89L57.28 1.89Q57.87 1.84 58.25 1.78 58.63 1.71 58.86 1.48 59.09 1.26 59.17 0.83 59.27 0.4 59.27-0.27L59.27-0.27 59.27-10.98 51.88-10.98Q51.8-8.55 51.68-6.68 51.57-4.81 51.34-3.46L51.34-3.46Q50.98-1.3 50.35 0.7 49.73 2.7 48.73 4.72L48.73 4.72ZM67.19-31.99L67.19-17.23 74.47-17.23 74.47-31.99 67.19-31.99ZM83.16-31.99L75.91-31.99 75.91-17.23 83.16-17.23 83.16-31.99ZM51.98-32.22L51.98-23.04 59.27-23.04 59.27-32.22 51.98-32.22ZM51.98-21.51L51.98-17.28Q51.98-15.97 51.98-14.83 51.98-13.68 51.93-12.6L51.93-12.6 59.27-12.6 59.27-21.51 51.98-21.51ZM104.67 4.23L104.4 2.34Q105.61 2.43 106.78 2.48 107.95 2.52 109.13 2.48L109.13 2.48Q110.25 2.43 110.9 2.34 111.56 2.25 111.85 1.91 112.14 1.57 112.21 0.94 112.28 0.32 112.28-0.81L112.28-0.81 112.28-11.47 98.69-11.47 98.69-23.67 126.27-23.67 126.27-11.47 113.85-11.47 113.85-0.32Q113.85 0.99 113.69 1.78 113.53 2.56 113.13 3.04 112.72 3.51 112.03 3.71 111.33 3.92 110.25 4.05L110.25 4.05Q109.08 4.14 107.55 4.18 106.02 4.23 104.67 4.23L104.67 4.23ZM100.31-22.14L100.31-13 124.65-13 124.65-22.14 100.31-22.14ZM110.66-36.77L112.28-37.13Q113.44-34.16 114.25-31.05L114.25-31.05 132.21-31.05 132.21-29.52 92.79-29.52 92.79-31.05 112.5-31.05Q112.09-32.49 111.62-33.98 111.15-35.46 110.66-36.77L110.66-36.77ZM119.03-6.52L119.97-7.83Q121.23-7.06 122.81-5.89 124.38-4.72 126.36-3.15L126.36-3.15Q128.34-1.57 129.87-0.32 131.4 0.94 132.44 2.02L132.44 2.02 131.31 3.28Q130.28 2.21 128.77 0.92 127.26-0.36 125.32-1.89L125.32-1.89Q121.45-5.04 119.03-6.52L119.03-6.52ZM93.11 3.38L92.07 2.07Q93.42 1.17 94.91 0.04 96.39-1.08 98.06-2.52L98.06-2.52Q99.72-3.96 101.07-5.33 102.42-6.71 103.55-8.05L103.55-8.05 104.81-6.93Q103.68-5.58 102.24-4.18 100.8-2.79 99.14-1.35L99.14-1.35Q97.47 0.04 95.98 1.21 94.5 2.38 93.11 3.38L93.11 3.38ZM163.22-36.54L164.75-36.54 164.75 1.53 172.62 1.53 172.62-29.2 174.15-29.2 174.15 3.06 153.76 3.06 153.76-29.2 155.29-29.2 155.29 1.53 163.22 1.53 163.22-36.54ZM137.79 4.5L136.44 3.6Q140.53-2.34 142.06-7.47L142.06-7.47Q143.64-12.73 143.64-21.69L143.64-21.69 143.64-36.63 145.08-36.63 145.08-22.23Q145.08-19.62 144.94-17.32 144.81-15.03 144.59-13L144.59-13Q145.53-11.7 146.66-10.01 147.78-8.32 148.77-6.61L148.77-6.61Q150.97-2.83 151.88-0.77L151.88-0.77 150.62 0.04Q150.12-1.03 149.38-2.48 148.63-3.92 147.65-5.67L147.65-5.67Q146.79-7.15 145.91-8.53 145.03-9.9 144.31-10.93L144.31-10.93Q143.96-8.73 143.5-7.11L143.5-7.11Q142.74-4.27 141.3-1.42 139.86 1.44 137.79 4.5L137.79 4.5ZM137.07-28.93L138.42-29.38Q138.82-28.3 139.28-26.77 139.72-25.24 140.22-23.36L140.22-23.36Q140.72-21.46 141.03-19.96 141.34-18.45 141.48-17.28L141.48-17.28 140.09-17.01Q139.95-18.13 139.63-19.62 139.32-21.11 138.82-22.99L138.82-22.99Q137.88-26.77 137.07-28.93L137.07-28.93ZM146.88-18.22L145.71-18.99Q146.29-19.84 146.99-21.02 147.69-22.18 148.46-23.76L148.46-23.76Q149.22-25.33 149.83-26.73 150.44-28.13 150.79-29.16L150.79-29.16 152.19-28.57Q151.78-27.54 151.18-26.14 150.57-24.75 149.76-23.18L149.76-23.18Q148.09-19.89 146.88-18.22L146.88-18.22Z" transform="translate(-1.1299999952316284, 37.130001068115234)"></path></g> <!----> <!----> <!----> <!----> <!----> <!----> <!----></g></g> <g data-gra="path-slogan" fill-rule="" class="tp-slogan iconsvg-slogansvg" fill="#333" transform="translate(41.909996032714844,47.85000228881836)"><!----> <!----> <g transform="scale(1, 1)"><g transform="scale(1)"><path d="M2.06-5.06L6.56-5.06L6.56-8.58L7.73-8.58L7.73 0L6.56 0L6.56-3.98L2.06-3.98L2.06 0L0.89 0L0.89-8.58L2.06-8.58L2.06-5.06ZM10.83-1.03L15.98-1.03L15.98 0L9.66 0L9.66-8.58L15.89-8.58L15.89-7.59L10.83-7.59L10.83-4.92L15.52-4.92L15.52-3.89L10.83-3.89L10.83-1.03ZM23.02-3.89L18.80-3.89L18.80 0L17.63 0L17.63-8.58L23.58-8.58L23.58-7.59L18.80-7.59L18.80-4.92L23.02-4.92L23.02-3.89ZM26.06-1.03L31.22-1.03L31.22 0L24.89 0L24.89-8.58L31.13-8.58L31.13-7.59L26.06-7.59L26.06-4.92L30.75-4.92L30.75-3.89L26.06-3.89L26.06-1.03ZM32.91-8.58L34.08-8.58L34.08 0L32.91 0L32.91-8.58ZM38.67-1.92L38.67-2.77L39.75-2.77L39.75-2.16Q39.75-0.75 41.06-0.75L41.06-0.75Q42.42-0.75 42.42-2.25L42.42-2.25L42.42-8.58L43.59-8.58L43.59-2.30Q43.55 0.09 41.11 0.14L41.11 0.14Q38.81 0.09 38.67-1.92L38.67-1.92ZM45.56-8.58L46.73-8.58L46.73 0L45.56 0L45.56-8.58ZM50.11-8.58L54.42-1.64L54.42-8.58L55.55-8.58L55.55 0L54.23 0L49.88-6.94L49.83-6.94L49.83 0L48.70 0L48.70-8.58L50.11-8.58ZM63.75-3.61L61.13-3.61L61.13-4.59L64.88-4.59L64.88 0L64.13 0L63.84-1.08Q62.86 0.09 61.03 0.14L61.03 0.14Q59.30 0.14 58.36-0.75L58.36-0.75Q56.95-2.06 57-4.36L57-4.36Q57.33-8.63 61.08-8.81L61.08-8.81Q64.27-8.63 64.73-6L64.73-6L63.61-6Q63.14-7.78 61.03-7.83L61.03-7.83Q58.36-7.64 58.22-4.31L58.22-4.31Q58.22-0.75 61.08-0.75L61.08-0.75Q62.11-0.75 62.86-1.31L62.86-1.31Q63.80-2.06 63.75-3.61L63.75-3.61ZM73.83-6.05L73.83-6.05L72.70-6.05Q72.28-7.78 70.31-7.83L70.31-7.83Q67.59-7.69 67.50-4.36L67.50-4.36Q67.50-0.80 70.36-0.80L70.36-0.80Q72.33-0.84 72.80-3.19L72.80-3.19L73.92-3.19Q73.41 0.05 70.13 0.14L70.13 0.14Q66.38 0 66.28-4.31L66.28-4.31Q66.47-8.63 70.31-8.81L70.31-8.81Q73.36-8.72 73.83-6.05ZM80.95 0L80.11-2.48L76.64-2.48L75.75 0L74.58 0L77.81-8.58L79.13-8.58L82.22 0L80.95 0ZM78.38-7.31L77.02-3.52L79.69-3.52L78.42-7.31L78.38-7.31ZM84.66-8.58L88.97-1.64L88.97-8.58L90.09-8.58L90.09 0L88.78 0L84.42-6.94L84.38-6.94L84.38 0L83.25 0L83.25-8.58L84.66-8.58Z" transform="translate(-0.890625, 8.8125)"></path></g></g></g></g></g><defs v-gra="od"></defs></svg>